<svg width="41" height="41" viewBox="0 0 41 41" fill="none" xmlns="http://www.w3.org/2000/svg">
<path d="M16.6113 0.374427C5.51404 2.51867 -1.76979 13.2915 0.374458 24.3887C2.5187 35.4859 13.2915 42.7697 24.3887 40.6255C35.4859 38.4812 42.7698 27.7084 40.6255 16.6112C38.4813 5.51401 27.7085 -1.76982 16.6113 0.374427ZM26.3632 13.104C26.7625 13.0162 27.1753 13.0092 27.5773 13.0835C27.9794 13.1578 28.3624 13.3119 28.704 13.5366C29.0455 13.7613 29.3386 14.0521 29.5659 14.3919C29.7933 14.7317 29.9503 15.1135 30.0277 15.5149C30.1051 15.9164 30.1014 16.3292 30.0167 16.7292C29.9321 17.1291 29.7682 17.5081 29.5347 17.8437C29.3012 18.1793 29.0029 18.4648 28.6574 18.6833C28.3118 18.9017 27.9261 19.0488 27.5228 19.1158C26.7351 19.2467 25.9274 19.0648 25.272 18.6088C24.6165 18.1529 24.165 17.4589 24.0138 16.6749C23.8626 15.8908 24.0236 15.0788 24.4625 14.4117C24.9013 13.7447 25.5834 13.2754 26.3632 13.104ZM12.2894 15.8233C12.686 15.7469 13.0938 15.7492 13.4895 15.8303C13.8852 15.9114 14.261 16.0697 14.5955 16.296C14.9301 16.5224 15.2167 16.8124 15.4392 17.1495C15.6616 17.4866 15.8155 17.8643 15.892 18.2609C15.9685 18.6575 15.9661 19.0653 15.885 19.4609C15.8039 19.8566 15.6456 20.2325 15.4193 20.567C15.193 20.9015 14.9029 21.1882 14.5658 21.4106C14.2287 21.6331 13.851 21.7869 13.4544 21.8634C12.6535 22.0179 11.8239 21.8479 11.1483 21.3908C10.4727 20.9336 10.0064 20.2268 9.8519 19.4259C9.69741 18.6249 9.86743 17.7954 10.3246 17.1198C10.7817 16.4442 11.4885 15.9778 12.2894 15.8233ZM22.8332 32.5753C14.783 34.1308 11.215 26.4694 11.215 26.4694L31.3405 22.5807C31.3405 22.5807 30.8834 31.0198 22.8332 32.5753Z" fill="white"/>
</svg>
