<svg width="14" height="15" viewBox="0 0 14 15" fill="none" xmlns="http://www.w3.org/2000/svg">
<path d="M0.314286 12.4829C-0.126391 12.9555 -0.100466 13.6959 0.372191 14.1366C0.844848 14.5773 1.58525 14.5514 2.02593 14.0787L0.314286 12.4829ZM13.6307 1.12916C13.6081 0.483332 13.0663 -0.0218808 12.4204 0.000733337L1.89613 0.36924C1.2503 0.391853 0.74509 0.933729 0.767704 1.57955C0.790317 2.22538 1.33219 2.73059 1.97802 2.70798L11.333 2.38041L11.6605 11.7354C11.6831 12.3812 12.225 12.8864 12.8708 12.8638C13.5167 12.8412 14.0219 12.2993 13.9993 11.6535L13.6307 1.12916ZM1.17011 13.2808L2.02593 14.0787L13.3172 1.96802L12.4614 1.1701L11.6056 0.372185L0.314286 12.4829L1.17011 13.2808Z" fill="white"/>
</svg>
