<svg width="17" height="20" viewBox="0 0 17 20" fill="none" xmlns="http://www.w3.org/2000/svg">
<path d="M8.75331 19.5067L8.76916 19.898L8.7652 19.9138L8.7543 19.9287L8.6592 19.996L8.6483 20L8.63443 19.996L8.53933 19.9287L8.53042 19.9168L8.52546 19.898L8.54131 19.5057L8.54428 19.4968C8.54918 19.4906 8.55729 19.4884 8.56707 19.4908L8.63146 19.5245L8.64434 19.5275L8.66316 19.5245L8.72854 19.4918L8.73944 19.4898C8.74658 19.4911 8.75089 19.4971 8.75331 19.5067ZM8.32535 19.3888L8.49475 19.473L8.50367 19.4819L8.50664 19.4928L8.4898 19.8871L8.48683 19.897L8.47791 19.9049L8.29365 19.9901L8.27978 19.9921C8.27 19.9884 8.26455 19.9803 8.26393 19.9693L8.29563 19.4066L8.30059 19.3937C8.30321 19.3898 8.30787 19.3868 8.31248 19.3858C8.31696 19.3849 8.32144 19.3864 8.32535 19.3888ZM8.98116 19.3868C8.99022 19.3886 8.99592 19.3952 8.99899 19.4066L9.03069 19.9693L9.02673 19.9822C9.02061 19.9901 9.01159 19.9932 8.99998 19.9901L8.81572 19.9059L8.80879 19.898L8.80383 19.8871L8.78798 19.4928L8.78996 19.4829L8.79987 19.474L8.96828 19.3888L8.98116 19.3868ZM10.7891 15.5857C10.5994 16.1222 10.2483 16.5868 9.78357 16.9152C9.31888 17.2436 8.76361 17.4197 8.19459 17.4194C7.6256 17.4197 7.07027 17.2435 6.60561 16.9152C6.14098 16.5867 5.78976 16.1221 5.60011 15.5857H10.7891ZM8.19459 0C9.89667 0 11.5291 0.675714 12.7327 1.87924C13.9363 3.08282 14.6129 4.71524 14.6129 6.41736V9.65179C14.6131 9.79409 14.6463 9.9347 14.71 10.0619L16.2832 13.2092C16.36 13.3629 16.3958 13.5338 16.3882 13.7055C16.3804 13.8772 16.329 14.0446 16.2386 14.1909C16.1482 14.337 16.0221 14.4579 15.872 14.5416C15.7219 14.6252 15.5525 14.6694 15.3807 14.6694H1.0085C0.836593 14.6694 0.667296 14.6253 0.517141 14.5416C0.367071 14.4579 0.240976 14.337 0.150605 14.1909C0.0602117 14.0446 0.00874446 13.8772 0.00101879 13.7055C-0.00666333 13.5338 0.0291731 13.3629 0.106026 13.2092L1.68015 10.0619C1.74359 9.93462 1.77737 9.79402 1.77723 9.65179V6.41736C1.77724 4.71527 2.45293 3.08281 3.65647 1.87924C4.86002 0.675693 6.49252 3.82614e-05 8.19459 0Z" fill="#FF9000"/>
</svg>
