<svg width="17" height="17" viewBox="0 0 17 17" fill="none" xmlns="http://www.w3.org/2000/svg">
<path d="M8.49999 0C13.1945 0 17 3.80544 17 8.49999C17 13.1945 13.1945 17 8.49999 17C3.80544 17 0 13.1945 0 8.49999C0 3.80544 3.80544 0 8.49999 0ZM8.49999 3.4C8.27455 3.4 8.05835 3.48955 7.89895 3.64895C7.73954 3.80836 7.64999 4.02456 7.64999 4.24999V8.49999C7.65004 8.7254 7.73962 8.94157 7.89904 9.10094L10.449 11.6509C10.6093 11.8058 10.8241 11.8914 11.0469 11.8895C11.2698 11.8876 11.483 11.7982 11.6406 11.6406C11.7982 11.483 11.8876 11.2698 11.8895 11.0469C11.8914 10.8241 11.8058 10.6093 11.6509 10.449L9.34999 8.14809V4.24999C9.34999 4.02456 9.26043 3.80836 9.10103 3.64895C8.94162 3.48955 8.72542 3.4 8.49999 3.4Z" fill="#034833"/>
</svg>
