<svg width="35" height="24" viewBox="0 0 35 24" fill="none" xmlns="http://www.w3.org/2000/svg">
<path d="M3.67783 12.5642C4.66645 12.1977 5.7384 12.1159 6.771 12.3287C7.80355 12.5416 8.7557 13.0403 9.51928 13.7679C9.82682 14.0609 10.0968 14.388 10.3292 14.739C10.9581 13.9861 11.7709 13.4072 12.6926 13.0654C13.6812 12.6989 14.7531 12.6171 15.7857 12.8299C16.8182 13.0428 17.7705 13.5415 18.534 14.2691C19.1784 14.8831 19.6644 15.6408 19.9595 16.4761H20.2877C21.2843 16.4762 22.2398 16.8728 22.9442 17.5781C23.6486 18.2836 24.0442 19.2403 24.0443 20.2375C24.0442 21.2349 23.6486 22.1924 22.9442 22.8979C22.2398 23.6032 21.2842 23.9998 20.2877 23.9999H14.6534C13.7749 24.0006 12.7367 24.0062 11.7918 23.4606C11.6209 23.4845 11.4476 23.4977 11.273 23.4978H5.63866C4.58468 23.4984 3.55155 23.2035 2.65686 22.6458C1.76201 22.0879 1.04132 21.2894 0.57684 20.3421C0.112389 19.3947 -0.0775854 18.3359 0.0287454 17.286C0.135122 16.2361 0.533638 15.2366 1.17867 14.4019C1.82363 13.5675 2.6895 12.9308 3.67783 12.5642ZM15.5327 14.058C14.7302 13.8926 13.8967 13.9558 13.1283 14.2407C12.3601 14.5256 11.6867 15.0211 11.1851 15.6701C11.1107 15.7663 11.0128 15.8329 10.9066 15.8723C10.9194 15.9064 10.9326 15.9405 10.9447 15.9749H11.273C12.2696 15.975 13.225 16.3714 13.9294 17.0769C14.6339 17.7825 15.0295 18.739 15.0295 19.7363C15.0295 20.7336 14.6339 21.6902 13.9294 22.3957C13.8171 22.5082 13.6972 22.6119 13.5728 22.7083C13.8971 22.7399 14.2532 22.7458 14.6524 22.7455H20.2877C20.9511 22.7454 21.5877 22.4818 22.0571 22.0117C22.5266 21.5415 22.7908 20.9029 22.7908 20.2375C22.7907 19.5723 22.5265 18.9344 22.0571 18.4643C21.5877 17.9942 20.9512 17.7306 20.2877 17.7305H19.4983C19.2126 17.7303 18.963 17.5364 18.8916 17.2596C18.6867 16.4647 18.263 15.7435 17.6694 15.1777C17.0756 14.6118 16.3352 14.2235 15.5327 14.058ZM15.2132 2.56148e-05C15.3339 0.0033001 15.9832 0.282759 16.6572 0.621395C17.8121 1.2019 17.9305 1.22575 18.6679 1.02783C19.3588 0.842405 19.4846 0.855026 19.7357 1.13432C19.8921 1.30835 20.0208 1.63097 20.021 1.85143C20.021 2.29591 20.1647 2.33172 20.9658 2.08396C21.7611 1.83817 22.1417 2.03358 22.2847 2.76102C22.3887 3.28939 22.5808 3.48742 23.3594 3.86991C23.8809 4.12603 24.4151 4.33575 24.5465 4.33593C24.6791 4.33515 25.684 3.86284 26.7799 3.28566C29.0545 2.08729 29.8492 1.78725 31.3776 1.5515C32.7181 1.34482 34.026 1.5874 34.2177 2.0781C34.2905 2.26436 34.1656 2.75114 33.9403 3.15963C33.2358 4.43546 31.968 5.39921 29.3308 6.66509L26.8522 7.85507L26.8551 8.83012C26.8577 9.75242 26.8984 9.82704 27.6025 10.1979C28.5228 10.6828 28.5361 10.9479 27.6689 11.5413L26.9899 12.0054L27.6689 12.4372C28.4939 12.9623 28.5183 13.2298 27.7842 13.6995C27.2382 14.0488 27.2253 14.0992 27.3651 15.3545L27.5097 16.65L26.6314 17.0144C26.1485 17.2147 25.6127 17.3544 25.4414 17.3251C25.2513 17.2913 24.7673 16.3886 24.2016 15.0145C23.2422 12.6838 21.9849 10.2363 21.7532 10.2468C21.6788 10.2517 20.3717 10.7791 18.8467 11.4192L17.1555 12.1275C16.1825 11.8424 15.1561 11.7672 14.1454 11.9106C13.4959 12.0028 12.865 12.1842 12.2705 12.446C11.5268 11.3985 10.5154 10.5678 9.33952 10.0465C9.32598 10.0405 9.31205 10.0348 9.29848 10.0289C9.36273 9.95932 9.45033 9.88513 9.56032 9.80418C9.95721 9.51202 10.1417 9.50463 12.0888 9.70648L14.1883 9.92435L16.624 8.50185C17.9613 7.72074 19.0852 6.98073 19.1241 6.85561C19.1997 6.58644 16.7576 4.07491 14.7999 2.4093C14.0315 1.75555 13.4024 1.14335 13.4019 1.04834C13.4023 0.953557 13.761 0.677828 14.1991 0.435766C14.6373 0.193673 15.0937 -0.00257824 15.2132 2.56148e-05Z" fill="#F66F4D"/>
</svg>
