<svg width="128" height="114" viewBox="0 0 128 114" fill="none" xmlns="http://www.w3.org/2000/svg">
<path d="M14.4456 96.225L22.1755 97.8448C23.2181 98.0631 24.2582 97.9115 25.1541 97.4742C26.0039 98.2828 27.0783 98.8718 28.2963 99.127L33.6608 100.251C35.3373 100.602 37.0164 100.266 38.3915 99.4271L72.2073 106.512C73.1301 107.832 74.5334 108.814 76.2099 109.165L81.5744 110.289C82.7935 110.544 84.014 110.436 85.1183 110.036C85.7635 110.796 86.6557 111.354 87.6989 111.572L95.4238 113.19C105.23 115.245 114.879 108.939 116.933 99.1326L118.424 92.016C118.773 90.3495 118.177 88.683 116.971 87.6092L123.021 58.7318C124.556 58.232 125.771 56.9448 126.121 55.2783L127.612 48.1617C129.666 38.356 123.36 28.7069 113.555 26.6523L105.83 25.0339C104.786 24.8155 103.745 24.9671 102.849 25.4057C101.999 24.5952 100.924 24.0062 99.7053 23.7511L95.6347 22.8981L95.84 21.9198C96.9506 16.6176 94.8685 11.2063 90.6108 7.99242C89.3336 5.75375 87.1493 4.12654 84.5974 3.59183L68.3564 0.189536C65.8046 -0.345173 63.1509 0.269399 61.0826 1.80677C55.8927 3.04153 51.8135 7.16134 50.7029 12.4635L50.4982 13.4418L46.4277 12.5889C45.208 12.3331 43.9875 12.4417 42.8826 12.8429C42.2374 12.0817 41.3445 11.5245 40.3007 11.3055L32.5771 9.68764C22.7714 7.63304 13.1223 13.9397 11.0677 23.7454L9.5758 30.867C9.2264 32.5335 9.82294 34.2007 11.029 35.2738L4.97995 64.1456C3.44445 64.6448 2.22904 65.9326 1.87964 67.5991L0.38843 74.7156C-1.6668 84.522 4.63929 94.1704 14.4456 96.225Z" fill="white"/>
<path d="M84.0404 10.4889L66.0943 6.72904C61.3743 5.74011 56.7029 8.79301 55.7146 13.513L53.2039 25.4969C52.2149 30.2169 55.2679 34.8877 59.9879 35.8772L77.9346 39.6371C82.6547 40.626 87.3261 37.5731 88.3144 32.853L90.8251 20.8686C91.8134 16.1492 88.7611 11.4778 84.0404 10.4889ZM83.686 30.0541C82.981 33.4202 79.6498 35.5971 76.2837 34.8921L63.4033 32.1936C60.0372 31.4885 57.8597 28.1573 58.5653 24.7912L60.3417 16.312C61.0467 12.9459 64.3778 10.769 67.7439 11.474L80.6244 14.1725C83.9905 14.8776 86.168 18.2088 85.4624 21.5749L83.686 30.0541Z" fill="#343990"/>
<path d="M99.1036 106.913L13.595 88.9984C9.06959 88.05 6.14215 83.5714 7.09052 79.0461L18.9439 22.4698C19.8923 17.9438 24.3709 15.017 28.8963 15.9653L114.405 33.8803C118.93 34.8287 121.858 39.3072 120.909 43.8326L109.056 100.409C108.107 104.934 103.629 107.861 99.1036 106.913Z" fill="#4850C9"/>
<path d="M23.237 91.0182C25.3047 81.1482 18.9798 71.4711 9.10987 69.4033C8.33806 69.2417 7.56815 69.1376 6.80196 69.0764L5.40063 75.7662C3.9294 82.7898 8.47159 89.7398 15.4952 91.2116L22.7852 92.739C22.9606 92.1781 23.1141 91.6053 23.237 91.0182Z" fill="#343990"/>
<path d="M113.321 91.3921C112.594 91.1407 111.847 90.9273 111.075 90.7657C101.205 88.698 91.5279 95.0228 89.4602 104.893C89.3373 105.48 89.2525 106.066 89.1882 106.651L96.4732 108.177C103.497 109.648 110.447 105.106 111.919 98.0825L113.321 91.3921Z" fill="#343990"/>
<path d="M14.6766 31.4906C15.4022 31.7414 16.1515 31.9505 16.9227 32.1121C26.7927 34.1798 36.4699 27.855 38.5376 17.985C38.6605 17.3973 38.7441 16.8114 38.8084 16.2268L31.524 14.7006C24.5004 13.2294 17.5504 17.7716 16.0786 24.7952L14.6766 31.4906Z" fill="#343990"/>
<path d="M104.762 31.8592C102.694 41.7292 109.019 51.4063 118.889 53.4741C119.661 53.6357 120.43 53.7405 121.197 53.8016L122.598 47.1112C124.069 40.0876 119.527 33.1376 112.503 31.6658L105.218 30.1396C105.043 30.7012 104.885 31.2715 104.762 31.8592Z" fill="#343990"/>
<path d="M81.9179 16.3754L65.6769 12.9731C63.54 12.5251 62.1586 10.4112 62.6059 8.27426C63.0539 6.13792 65.1678 4.75591 67.3048 5.20327L83.5457 8.60557C85.6821 9.05292 87.0641 11.1674 86.6167 13.3044C86.1687 15.4407 84.0542 16.8227 81.9179 16.3754Z" fill="#4850C9"/>
<path d="M35.1626 95.3319L28.8934 94.0186C28.3768 93.9106 28.046 93.404 28.154 92.8874L43.7916 18.2471C43.8996 17.7305 44.4062 17.3998 44.9228 17.5077L51.1921 18.8211C51.7087 18.9297 52.0393 19.4357 51.9314 19.9523L36.2938 94.592C36.1859 95.1092 35.6792 95.4405 35.1626 95.3319Z" fill="#343990"/>
<path d="M83.0756 105.369L76.8064 104.056C76.2898 103.948 75.9591 103.441 76.0671 102.925L91.7046 28.2852C91.8126 27.7686 92.3192 27.4379 92.8358 27.5458L99.1051 28.8592C99.6217 28.9677 99.9524 29.4738 99.8445 29.9904L84.2069 104.63C84.0989 105.147 83.5922 105.478 83.0756 105.369Z" fill="#343990"/>
<path d="M47.5819 42.2009L47.1452 41.3131C48.0193 40.8832 48.632 40.1064 48.8254 39.1824L50.1431 32.8919C50.4932 31.221 49.4181 29.5763 47.7473 29.2263L43.9007 28.4202C42.2298 28.0701 40.5851 29.1452 40.2351 30.8154L38.9174 37.1059C38.724 38.03 38.9729 38.9871 39.6018 39.732L38.8457 40.3697C38.0189 39.3908 37.6926 38.1273 37.9491 36.9031L39.2668 30.6133C39.7285 28.4083 41.8985 26.9907 44.1035 27.4525L47.95 28.2586C50.155 28.7203 51.5732 30.8903 51.1109 33.0947L49.7931 39.3845C49.5367 40.6099 48.7312 41.6363 47.5819 42.2009Z" fill="#F6C545"/>
<path d="M43.6473 39.2158C43.3653 39.1565 43.1831 38.8782 43.2424 38.5962L44.2307 33.878C44.29 33.596 44.5682 33.4138 44.8502 33.4731C45.1316 33.5324 45.3138 33.8106 45.2552 34.0927L44.2669 38.8108C44.2076 39.0922 43.9287 39.2744 43.6473 39.2158Z" fill="white"/>
<path d="M43.5453 39.7C42.9962 39.5852 42.6425 39.0449 42.7579 38.4952L43.7462 33.777C43.861 33.228 44.402 32.8742 44.951 32.9896C45.5001 33.105 45.8532 33.6454 45.7384 34.1944L44.7501 38.9126C44.6347 39.4616 44.0944 39.8148 43.5453 39.7Z" fill="#F6C545"/>
<path d="M86.7597 50.409C85.933 49.4307 85.6066 48.1673 85.8637 46.9419L87.1815 40.6514C87.6432 38.4464 89.8132 37.0288 92.0182 37.4905L95.8647 38.2967C98.0691 38.7584 99.4879 40.9284 99.0256 43.1327L97.7078 49.4226C97.4514 50.6468 96.6452 51.6731 95.4953 52.2378L95.0586 51.3499C95.9334 50.92 96.546 50.1432 96.7395 49.2192L98.0572 42.9287C98.4073 41.2578 97.3322 39.6132 95.6613 39.2631L91.8148 38.457C90.1439 38.107 88.4992 39.182 88.1492 40.8523L86.8314 47.1421C86.6374 48.0668 86.887 49.0239 87.5159 49.7676L86.7597 50.409Z" fill="#F6C545"/>
<path d="M91.561 49.2539C91.2796 49.1946 91.0975 48.9163 91.1561 48.6343L92.1444 43.9161C92.2037 43.6341 92.482 43.4519 92.764 43.5112C93.046 43.5705 93.2282 43.8487 93.1689 44.1308L92.1806 48.8489C92.1213 49.1309 91.8424 49.3131 91.561 49.2539Z" fill="white"/>
<path d="M91.4593 49.7381C90.9102 49.6233 90.5565 49.0824 90.6719 48.5333L91.6602 43.8151C91.775 43.2654 92.3153 42.9123 92.865 43.0277C93.4141 43.1425 93.7678 43.6829 93.6524 44.2325L92.6641 48.9507C92.5493 49.5004 92.009 49.8535 91.4593 49.7381Z" fill="#F6C545"/>
</svg>
