<svg width="15" height="15" viewBox="0 0 15 15" fill="none" xmlns="http://www.w3.org/2000/svg">
<path d="M7.49997 0C3.36449 0 0 3.36449 0 7.49997C0 11.6355 3.36449 14.9999 7.49997 14.9999C11.6355 14.9999 14.9999 11.6355 14.9999 7.49997C14.9999 3.36449 11.6355 0 7.49997 0ZM10.1197 5.24998C10.2693 5.24616 10.418 5.27232 10.5573 5.32692C10.6966 5.38152 10.8235 5.46345 10.9306 5.56788C11.0377 5.67231 11.1228 5.79713 11.1809 5.93498C11.239 6.07282 11.2689 6.2209 11.2688 6.37049C11.2688 6.52007 11.2388 6.66813 11.1806 6.80594C11.1224 6.94375 11.0372 7.06851 10.9301 7.17287C10.8229 7.27723 10.6959 7.35907 10.5566 7.41358C10.4173 7.46808 10.2685 7.49414 10.119 7.49023C9.82691 7.48257 9.5494 7.36115 9.34557 7.15184C9.14175 6.94253 9.02773 6.66189 9.02783 6.36974C9.02793 6.07758 9.14213 5.79702 9.34609 5.58785C9.55006 5.37868 9.82766 5.25744 10.1197 5.24998ZM4.87498 5.24998C5.02277 5.25003 5.1691 5.27919 5.30562 5.33579C5.44213 5.39239 5.56617 5.47533 5.67063 5.57986C5.7751 5.6844 5.85795 5.80848 5.91446 5.94504C5.97097 6.08159 6.00003 6.22794 5.99998 6.37573C5.99993 6.52351 5.97077 6.66984 5.91417 6.80636C5.85757 6.94288 5.77464 7.06691 5.6701 7.17138C5.56557 7.27584 5.44148 7.35869 5.30492 7.4152C5.16837 7.47171 5.02202 7.50077 4.87423 7.50073C4.57577 7.50063 4.28956 7.38196 4.07859 7.17085C3.86761 6.95973 3.74914 6.67345 3.74924 6.37498C3.74934 6.07651 3.868 5.79031 4.07912 5.57933C4.29023 5.36835 4.57652 5.24988 4.87498 5.24998ZM7.49997 12C4.49999 12 3.74999 8.99997 3.74999 8.99997H11.25C11.25 8.99997 10.5 12 7.49997 12Z" fill="#FF9000"/>
</svg>
