<svg width="68" height="68" viewBox="0 0 68 68" fill="none" xmlns="http://www.w3.org/2000/svg">
<g clip-path="url(#clip0_1_872)">
<path d="M44.1941 32.7079L51.8191 44.1017M29.5032 37.747L27.171 40.3215L13.1577 44.1699L25.085 61.9926L39.1409 58.2079L51.8191 44.1017L65.4064 39.6168L53.9051 22.4306L44.5629 24.9962L29.5032 37.747ZM27.171 40.3215L39.1409 58.2079L27.171 40.3215Z" stroke="#2D3134" stroke-width="2" stroke-miterlimit="10" stroke-linecap="round" stroke-linejoin="round"/>
<path d="M21.2207 14.9042C18.8572 16.4858 17.2189 18.9416 16.6661 21.7312C16.1133 24.5208 16.6913 27.4157 18.273 29.7792C23.6402 37.7994 38.2596 40.3652 38.2596 40.3652C38.2596 40.3652 41.4629 25.8721 36.0957 17.8519C34.514 15.4884 32.0583 13.8501 29.2687 13.2973C26.4791 12.7445 23.5841 13.3225 21.2207 14.9042V14.9042Z" stroke="#2D3134" stroke-width="2" stroke-miterlimit="10" stroke-linecap="round" stroke-linejoin="round"/>
<path d="M28.8881 26.3618C30.2943 25.4207 30.6714 23.518 29.7303 22.1118C28.7893 20.7056 26.8865 20.3285 25.4803 21.2696C24.0741 22.2106 23.6971 24.1134 24.6381 25.5196C25.5792 26.9257 27.4819 27.3028 28.8881 26.3618Z" stroke="#2D3134" stroke-width="2" stroke-miterlimit="10" stroke-linecap="round" stroke-linejoin="round"/>
</g>
<defs>
<clipPath id="clip0_1_872">
<rect width="48.4398" height="48.4398" fill="white" transform="translate(0 27.2624) scale(1.01194) rotate(-33.7912)"/>
</clipPath>
</defs>
</svg>
