<svg width="14" height="14" viewBox="0 0 14 14" fill="none" xmlns="http://www.w3.org/2000/svg">
<path d="M6.38765 7.40837L5.54182 6.57712C5.43487 6.47018 5.30129 6.41671 5.14107 6.41671C4.98085 6.41671 4.84221 6.47504 4.72515 6.59171C4.61821 6.69865 4.56473 6.83476 4.56473 7.00004C4.56473 7.16532 4.61821 7.30143 4.72515 7.40837L5.97932 8.66254C6.09599 8.77921 6.2321 8.83754 6.38765 8.83754C6.54321 8.83754 6.67932 8.77921 6.79599 8.66254L9.27516 6.18337C9.39182 6.06671 9.44763 5.93059 9.44257 5.77504C9.43752 5.61948 9.38171 5.48337 9.27516 5.3667C9.15849 5.25004 9.02004 5.18937 8.85982 5.1847C8.6996 5.18004 8.56096 5.23584 8.44391 5.35212L6.38765 7.40837ZM4.75432 12.6875L3.90848 11.2584L2.30431 10.9084C2.15848 10.8792 2.04181 10.804 1.95431 10.6826C1.86681 10.5613 1.83279 10.4275 1.85223 10.2813L2.01265 8.63338L0.918896 7.37921C0.821674 7.27226 0.773063 7.14587 0.773063 7.00004C0.773063 6.85421 0.821674 6.72782 0.918896 6.62087L2.01265 5.3667L1.85223 3.71879C1.83279 3.57295 1.86681 3.43917 1.95431 3.31745C2.04181 3.19573 2.15848 3.12048 2.30431 3.0917L3.90848 2.7417L4.75432 1.31253C4.8321 1.18614 4.93904 1.10098 5.07515 1.05703C5.21126 1.01309 5.34737 1.02048 5.48348 1.0792L7.00015 1.72087L8.51682 1.0792C8.65293 1.02087 8.78904 1.01348 8.92516 1.05703C9.06127 1.10059 9.16821 1.18575 9.24599 1.31253L10.0918 2.7417L11.696 3.0917C11.8418 3.12087 11.9585 3.19631 12.046 3.31804C12.1335 3.43976 12.1675 3.57334 12.1481 3.71879L11.9877 5.3667L13.0814 6.62087C13.1786 6.72782 13.2272 6.85421 13.2272 7.00004C13.2272 7.14587 13.1786 7.27226 13.0814 7.37921L11.9877 8.63338L12.1481 10.2813C12.1675 10.4271 12.1335 10.5609 12.046 10.6826C11.9585 10.8044 11.8418 10.8796 11.696 10.9084L10.0918 11.2584L9.24599 12.6875C9.16821 12.8139 9.06127 12.8991 8.92516 12.943C8.78904 12.987 8.65293 12.9796 8.51682 12.9209L7.00015 12.2792L5.48348 12.9209C5.34737 12.9792 5.21126 12.9866 5.07515 12.943C4.93904 12.8995 4.8321 12.8143 4.75432 12.6875Z" fill="#2AABEE"/>
</svg>
