<svg width="39" height="39" viewBox="0 0 39 39" fill="none" xmlns="http://www.w3.org/2000/svg">
<path d="M17.3198 20.4685L15.0964 17.4579C14.8162 17.0715 14.4265 16.8385 13.9271 16.7589C13.4278 16.6794 12.9667 16.7923 12.544 17.0978C12.1576 17.378 11.9234 17.7757 11.8413 18.2908C11.7592 18.8059 11.8583 19.2566 12.1385 19.643L15.4244 24.1744C15.7301 24.596 16.1253 24.8453 16.6101 24.9226C17.0949 24.9998 17.5481 24.8856 17.9696 24.5799L26.9271 18.0845C27.3486 17.7788 27.5901 17.3823 27.6516 16.895C27.7131 16.4077 27.6067 15.9558 27.3326 15.5393C27.0269 15.1178 26.6256 14.86 26.1285 14.7658C25.6315 14.6717 25.1717 14.7768 24.7492 15.0811L17.3198 20.4685ZM9.6081 36.1103L7.68165 31.2362L2.85597 29.3489C2.41596 29.1856 2.08972 28.8931 1.87727 28.4716C1.66482 28.05 1.6252 27.6161 1.7584 27.1701L3.0766 22.1139L0.290612 17.6622C0.0407153 17.2806 -0.0480271 16.8626 0.0243846 16.4081C0.0967962 15.9536 0.311052 15.5838 0.667152 15.2988L4.69862 11.9332L5.01693 6.71772C5.02874 6.25357 5.20121 5.85354 5.53435 5.51763C5.86749 5.18173 6.26845 5.00513 6.73724 4.98786L11.9105 4.69359L15.2562 0.65951C15.5614 0.304232 15.937 0.0919075 16.383 0.0225365C16.829 -0.0468343 17.2495 0.0437777 17.6446 0.294373L22.0527 3.04724L27.0981 1.80054C27.5513 1.68632 27.9791 1.73088 28.3817 1.93421C28.7843 2.13753 29.0753 2.45606 29.2547 2.88979L31.1812 7.76385L36.0068 9.65117C36.4469 9.81448 36.773 10.1075 36.9853 10.5303C37.1975 10.9531 37.2372 11.3864 37.1044 11.83L35.7862 16.8861L38.5722 21.3379C38.8221 21.7195 38.9108 22.1375 38.8384 22.592C38.766 23.0465 38.5518 23.4163 38.1957 23.7013L34.1642 27.0669L33.8459 32.2824C33.8341 32.7465 33.6616 33.1465 33.3285 33.4824C32.9953 33.8184 32.5944 33.9949 32.1256 34.0122L26.9523 34.3065L23.6066 38.3406C23.3015 38.6958 22.9259 38.9082 22.4799 38.9775C22.0338 39.0469 21.6133 38.9563 21.2183 38.7057L16.8101 35.9528L11.7647 37.1995C11.3116 37.3138 10.8837 37.2692 10.4811 37.0659C10.0786 36.8625 9.78755 36.544 9.6081 36.1103Z" fill="white"/>
</svg>
