<svg width="42" height="42" viewBox="0 0 42 42" fill="none" xmlns="http://www.w3.org/2000/svg">
<rect width="42" height="42" rx="21" fill="#FF9000" fill-opacity="0.18"/>
<path fill-rule="evenodd" clip-rule="evenodd" d="M25.3671 14.2674C25.2223 14.2674 25.0834 14.2099 24.9811 14.1075C24.8787 14.0051 24.8212 13.8662 24.8212 13.7215C24.8212 13.5767 24.8787 13.4378 24.9811 13.3354C25.0834 13.2331 25.2223 13.1755 25.3671 13.1755H28.2786C28.3865 13.1756 28.492 13.2077 28.5817 13.2677C28.6714 13.3277 28.7413 13.4129 28.7826 13.5126C28.8238 13.6123 28.8346 13.722 28.8136 13.8278C28.7926 13.9337 28.7407 14.0309 28.6644 14.1072L26.6846 16.0871H28.2786C28.4234 16.0871 28.5623 16.1446 28.6647 16.247C28.767 16.3494 28.8246 16.4882 28.8246 16.633C28.8246 16.7778 28.767 16.9167 28.6647 17.019C28.5623 17.1214 28.4234 17.1789 28.2786 17.1789H25.3671C25.2592 17.1788 25.1537 17.1468 25.064 17.0868C24.9743 17.0268 24.9045 16.9416 24.8632 16.8419C24.8219 16.7422 24.8111 16.6325 24.8321 16.5266C24.8531 16.4208 24.905 16.3236 24.9813 16.2472L26.9612 14.2674H25.3671ZM22.0916 18.6347C21.9468 18.6347 21.8079 18.5772 21.7056 18.4748C21.6032 18.3724 21.5457 18.2336 21.5457 18.0888C21.5457 17.944 21.6032 17.8052 21.7056 17.7028C21.8079 17.6004 21.9468 17.5429 22.0916 17.5429H24.2752C24.3831 17.543 24.4886 17.575 24.5783 17.635C24.668 17.695 24.7379 17.7803 24.7792 17.88C24.8204 17.9796 24.8312 18.0893 24.8102 18.1952C24.7892 18.301 24.7373 18.3982 24.661 18.4746L23.4091 19.7266H24.2752C24.42 19.7266 24.5589 19.7841 24.6613 19.8864C24.7636 19.9888 24.8212 20.1277 24.8212 20.2725C24.8212 20.4173 24.7636 20.5561 24.6613 20.6585C24.5589 20.7609 24.42 20.8184 24.2752 20.8184H22.0916C21.9837 20.8183 21.8782 20.7862 21.7885 20.7262C21.6988 20.6662 21.6289 20.581 21.5877 20.4813C21.5464 20.3816 21.5356 20.2719 21.5566 20.1661C21.5776 20.0603 21.6295 19.963 21.7058 19.8867L22.9578 18.6347H22.0916Z" fill="#FF9000"/>
<path d="M20.9998 28.2791C25.0199 28.2791 28.2787 25.0204 28.2787 21.0002C28.2787 20.6632 27.7735 20.6072 27.5996 20.8961C27.2285 21.5107 26.7225 22.0328 26.1198 22.4229C25.5171 22.8129 24.8335 23.0607 24.1209 23.1474C23.4082 23.2342 22.6852 23.1576 22.0065 22.9235C21.3278 22.6894 20.7113 22.304 20.2037 21.7963C19.696 21.2887 19.3106 20.6722 19.0765 19.9935C18.8424 19.3148 18.7658 18.5918 18.8526 17.8791C18.9393 17.1665 19.1871 16.4829 19.5772 15.8802C19.9672 15.2775 20.4893 14.7715 21.1039 14.4004C21.3929 14.2257 21.3368 13.7213 20.9998 13.7213C16.9797 13.7213 13.7209 16.9801 13.7209 21.0002C13.7209 25.0204 16.9797 28.2791 20.9998 28.2791Z" fill="#FF9000"/>
</svg>
