<svg width="44" height="47" viewBox="0 0 44 47" fill="none" xmlns="http://www.w3.org/2000/svg">
<path d="M29.8147 40.7829C29.5548 42.3067 28.8288 43.7124 27.7365 44.8063C26.6442 45.9002 25.2392 46.6284 23.7157 46.8905C22.1924 47.1542 20.6247 46.9389 19.2289 46.2744C17.8331 45.6099 16.6774 44.529 15.9217 43.1804L29.8147 40.7829Z" fill="white"/>
<path d="M15.6677 0.25402C20.2246 -0.532322 24.9071 0.52375 28.6853 3.18983C32.4635 5.85595 35.0278 9.91379 35.8143 14.4706L37.3087 23.1307C37.3749 23.5116 37.5294 23.872 37.7589 24.1831L43.4246 31.8826C43.7016 32.2587 43.8779 32.6995 43.9365 33.1629C43.9952 33.6263 43.934 34.0967 43.7596 34.53C43.5852 34.9633 43.3031 35.345 42.9397 35.6385C42.5765 35.9319 42.1442 36.1273 41.6841 36.2067L3.20587 42.8468C2.74573 42.9263 2.273 42.887 1.8324 42.7323C1.39168 42.5776 0.997261 42.3126 0.687692 41.9628C0.378276 41.6131 0.163569 41.1901 0.0635436 40.734C-0.0364903 40.2778 -0.0181236 39.8034 0.116707 39.3562L2.87646 30.2027C2.98749 29.8326 3.01096 29.4415 2.94491 29.0608L1.45044 20.4007C0.66419 15.8439 1.72023 11.1613 4.38626 7.38309C7.05244 3.60479 11.1108 1.0404 15.6677 0.25402Z" fill="white"/>
</svg>
