<svg width="17" height="12" viewBox="0 0 17 12" fill="none" xmlns="http://www.w3.org/2000/svg">
<path d="M10.5 7.50001C8.49751 7.50001 4.5 8.49751 4.5 10.5V12H16.5V10.5C16.5 8.49751 12.5025 7.50001 10.5 7.50001ZM3.75 4.5V2.25H2.25V4.5H0V6H2.25V8.25001H3.75V6H6V4.5M10.5 6C11.2957 6 12.0587 5.68393 12.6213 5.12132C13.1839 4.55871 13.5 3.79565 13.5 3C13.5 2.20435 13.1839 1.44129 12.6213 0.87868C12.0587 0.316071 11.2957 0 10.5 0C9.70436 0 8.9413 0.316071 8.37869 0.87868C7.81608 1.44129 7.50001 2.20435 7.50001 3C7.50001 3.79565 7.81608 4.55871 8.37869 5.12132C8.9413 5.68393 9.70436 6 10.5 6Z" fill="#FF9000"/>
</svg>
