<svg width="62" height="62" viewBox="0 0 62 62" fill="none" xmlns="http://www.w3.org/2000/svg">
<g opacity="0.1" clip-path="url(#clip0_1_876)">
<path d="M39.2299 43.1724L42.3615 49.7283M49.6428 31.5961C47.8446 36.6832 44.0991 40.8477 39.2304 43.1733C34.3616 45.499 28.7685 45.7953 23.6813 43.997C18.5941 42.1988 14.4296 38.4533 12.104 33.5846C9.77836 28.7158 9.48207 23.1227 11.2803 18.0355L49.6428 31.5961ZM9.14907 17.2821L16.8022 19.9874L9.14907 17.2821ZM51.7741 32.3494L44.1209 29.6442L51.7741 32.3494ZM34.4943 53.4862L50.2286 45.9705L34.4943 53.4862Z" stroke="black" stroke-width="2" stroke-miterlimit="10" stroke-linecap="round" stroke-linejoin="round"/>
<path d="M36.7246 37.928C43.9661 34.4689 47.0324 25.7945 43.5734 18.553C40.1144 11.3115 31.4399 8.24516 24.1984 11.7042C16.9569 15.1632 13.8906 23.8377 17.3496 31.0792C20.8087 38.3207 29.4831 41.387 36.7246 37.928Z" stroke="black" stroke-width="2" stroke-miterlimit="10" stroke-linecap="round" stroke-linejoin="round"/>
</g>
<defs>
<clipPath id="clip0_1_876">
<rect width="46.3142" height="46.3142" fill="white" transform="translate(0 20.0419) scale(1.00399) rotate(-25.5323)"/>
</clipPath>
</defs>
</svg>
