<svg width="17" height="17" viewBox="0 0 17 17" fill="none" xmlns="http://www.w3.org/2000/svg">
<path d="M12.7657 3.54967L14.4374 2.98031L15.9624 7.44117H16.728V17H0V7.44117H0.406544V7.43308L0.922308 7.43813L10.2334 0L12.7657 3.54967ZM3.0511 9.03397C2.93223 9.37021 2.73904 9.67585 2.48679 9.92796C2.23461 10.1799 1.92896 10.3726 1.5928 10.4913V13.9479C1.92928 14.067 2.23533 14.2599 2.4878 14.5122C2.74016 14.7644 2.93276 15.07 3.05211 15.4062H13.6779C13.7967 15.07 13.989 14.7643 14.2412 14.5122C14.4934 14.2601 14.7989 14.0676 15.1352 13.9489V10.4913C14.7988 10.3725 14.4934 10.1802 14.2412 9.92796C13.989 9.67576 13.7967 9.37026 13.6779 9.03397H3.0511ZM8.36347 9.43242C9.1029 9.43242 9.81265 9.7257 10.3355 10.2485C10.8584 10.7714 11.1516 11.4811 11.1516 12.2206C11.1515 12.9598 10.8582 13.6688 10.3355 14.1916C9.81265 14.7145 9.10292 15.0087 8.36347 15.0087C7.62417 15.0086 6.91522 14.7144 6.39244 14.1916C5.86968 13.6688 5.5754 12.9599 5.57531 12.2206C5.57531 11.4811 5.86958 10.7714 6.39244 10.2485C6.91521 9.72586 7.62424 9.43253 8.36347 9.43242ZM8.36347 11.0252C8.04678 11.0253 7.74302 11.1512 7.51904 11.3751C7.29495 11.5992 7.16913 11.9037 7.16913 12.2206C7.16921 12.5374 7.29505 12.841 7.51904 13.065C7.74303 13.289 8.04671 13.4148 8.36347 13.4149C8.68038 13.4149 8.98484 13.2891 9.20892 13.065C9.43284 12.841 9.55875 12.5373 9.55883 12.2206C9.55883 11.9037 9.43301 11.5992 9.20892 11.3751C8.98484 11.1511 8.68036 11.0252 8.36347 11.0252ZM12.2408 5.41249L6.2903 7.44117H14.2786L13.4523 5.02415L12.2408 5.41249ZM5.05045 6.18007L11.1921 4.08667L9.9138 2.29465L5.05045 6.18007Z" fill="#034833"/>
</svg>
