<svg width="17" height="18" viewBox="0 0 17 18" fill="none" xmlns="http://www.w3.org/2000/svg">
<path d="M12.5993 0C13.0962 0.000135315 13.4993 0.403019 13.4993 0.899951V1.80088H14.3992C15.391 1.80109 16.1991 2.60893 16.1991 3.60078V16.2001C16.1989 17.1917 15.3909 17.9998 14.3992 18H1.7999C0.808171 17.9999 0.000237589 17.1918 0 16.2001V3.60078C0 2.60888 0.808025 1.801 1.7999 1.80088H2.69985V0.899951C2.69985 0.402946 3.1028 1.65426e-05 3.5998 0C4.09682 0 4.49976 0.402936 4.49976 0.899951V1.80088H11.6994V0.899951C11.6994 0.402946 12.1023 1.65426e-05 12.5993 0ZM1.7999 16.2001H14.3992V6.30064H1.80088L1.7999 3.60078V16.2001ZM9.99151 11.7052C10.4452 11.7514 10.7994 12.1344 10.7994 12.6003C10.7993 13.0661 10.4451 13.4492 9.99151 13.4953L9.89946 13.5002H3.5998C3.10291 13.5002 2.69995 13.0972 2.69985 12.6003C2.69985 12.1033 3.10285 11.7004 3.5998 11.7003H9.89946L9.99151 11.7052ZM12.6914 8.10543C13.145 8.15166 13.4993 8.53464 13.4993 9.00049C13.4992 9.46625 13.145 9.84932 12.6914 9.89554L12.5993 9.90044H3.5998C3.10286 9.90042 2.69995 9.49741 2.69985 9.00049C2.69985 8.50348 3.1028 8.10055 3.5998 8.10054H12.5993L12.6914 8.10543Z" fill="#034833"/>
</svg>
