<svg width="67" height="22" viewBox="0 0 67 22" fill="none" xmlns="http://www.w3.org/2000/svg">
<g clip-path="url(#clip0_1_864)">
<path d="M34.6508 6.91668C34.6126 9.93063 37.3368 11.6124 39.3889 12.6125C41.4973 13.6384 42.2056 14.2964 42.1972 15.2139C42.1815 16.6181 40.5154 17.2378 38.9563 17.2619C36.2363 17.304 34.6547 16.5275 33.3974 15.9402L32.4175 20.5253C33.679 21.1065 36.0149 21.6135 38.4371 21.6357C44.1229 21.6357 47.8427 18.8291 47.8629 14.4775C47.8851 8.95468 40.2238 8.649 40.2762 6.18046C40.2942 5.43195 41.0084 4.63318 42.5735 4.43009C43.3482 4.3275 45.4867 4.24898 47.9113 5.36547L48.8629 0.92934C47.559 0.454582 45.8832 -2.28882e-05 43.7968 -2.28882e-05C38.4452 -2.28882e-05 34.6811 2.84486 34.6508 6.91668ZM58.0068 0.382086C56.9686 0.382086 56.0937 0.987703 55.7032 1.91707L47.5813 21.3099H53.2629L54.3935 18.1852H61.3364L61.9923 21.3099H67L62.6301 0.382086H58.0068ZM58.8017 6.03547L60.4413 13.8941H55.9508L58.8017 6.03547ZM27.7621 0.382347L23.2835 21.3096H28.6977L33.1742 0.381824L27.7621 0.382347ZM19.7527 0.382347L14.1174 14.6264L11.8378 2.51483C11.5703 1.16279 10.514 0.382086 9.341 0.382086H0.129027L0 0.989796C1.89118 1.40017 4.03989 2.06206 5.34168 2.77027C6.13835 3.20289 6.36552 3.58107 6.62724 4.60911L10.9448 21.3099H16.6663L25.438 0.382086L19.7527 0.382347Z" fill="#2AABEE"/>
</g>
<defs>
<clipPath id="clip0_1_864">
<rect width="67" height="21.7227" fill="white"/>
</clipPath>
</defs>
</svg>
